
<svg width="16px" height="16px" viewBox="0 0 16 16" version="1.1" xmlns="http://www.w3.org/2000/svg" xmlns:xlink="http://www.w3.org/1999/xlink">
    <g id="Symbols" stroke="none" stroke-width="1" fill="none" fill-rule="evenodd">
        <g id="Thumbnali---Medium" fill="#dddddd" fill-rule="nonzero">
            <g id="logo-medium">
                <path d="M15.5,0 L0.5,0 C0.223857625,-1.69088438e-17 3.38176876e-17,0.223857625 0,0.5 L0,15.5 C3.38176876e-17,15.7761424 0.223857625,16 0.5,16 L15.5,16 C15.7761424,16 16,15.7761424 16,15.5 L16,0.5 C16,0.223857625 15.7761424,1.69088438e-17 15.5,0 Z M13.29225,3.79075 L12.43425,4.6135 C12.3601817,4.66977902 12.3234863,4.7625289 12.339,4.85425 L12.339,10.9 C12.3234863,10.9917211 12.3601817,11.084471 12.43425,11.14075 L13.27225,11.9635 L13.27225,12.144 L9.057,12.144 L9.057,11.9635 L9.925,11.12025 C10.01025,11.035 10.01025,11.01 10.01025,10.8795 L10.01025,5.99325 L7.59675,12.1235 L7.27175,12.1235 L4.4605,5.99325 L4.4605,10.10175 C4.43707335,10.2744663 4.4944219,10.448356 4.616,10.57325 L5.745,11.94275 L5.745,12.12325 L2.5435,12.12325 L2.5435,11.94275 L3.6725,10.57325 C3.79319597,10.4481497 3.84721136,10.2731101 3.818,10.10175 L3.818,5.35175 C3.83097701,5.22018538 3.78068473,5.09027914 3.6825,5.00175 L2.679,3.79275 L2.679,3.61225 L5.79525,3.61225 L8.204,8.89475 L10.32175,3.61225 L13.29225,3.61225 L13.29225,3.79075 Z" id="Shape"></path>
            </g>
        </g>
    </g>
</svg>