
<svg width="16px" height="13px" viewBox="0 0 16 13" version="1.1" xmlns="http://www.w3.org/2000/svg" xmlns:xlink="http://www.w3.org/1999/xlink">
    <g id="Symbols" stroke="none" stroke-width="1" fill="none" fill-rule="evenodd">
        <g id="Thumbnali---Twitter" fill="#dddddd" fill-rule="nonzero">
            <path d="M16,1.55 C15.4,1.8 14.775,2 14.125,2.075 C14.8,1.675 15.325,1.025 15.575,0.25 C14.95,0.625 14.25,0.9 13.5,1.05 C12.875,0.4 12.025,0 11.075,0 C9.25,0 7.8,1.475 7.8,3.275 C7.8,3.525 7.825,3.775 7.875,4.025 C5.15,3.9 2.725,2.575 1.125,0.6 C0.85,1.075 0.675,1.65 0.675,2.25 C0.675,3.4 1.25,4.4 2.125,4.975 C1.575,4.95 1.075,4.8 0.65,4.575 C0.65,4.6 0.65,4.6 0.65,4.625 C0.65,6.225 1.775,7.55 3.275,7.85 C3,7.925 2.7,7.975 2.4,7.975 C2.2,7.975 1.975,7.95 1.775,7.925 C2.2,9.225 3.4,10.175 4.85,10.2 C3.725,11.075 2.3,11.6 0.775,11.6 C0.5,11.6 0.25,11.575 0,11.55 C1.45,12.45 3.175,13 5.025,13 C11.075,13 14.375,8 14.375,3.65 C14.375,3.5 14.375,3.375 14.375,3.225 C15,2.775 15.55,2.2 16,1.55 Z" id="Shape"></path>
        </g>
    </g>
</svg>